<svg width="212" height="71" viewBox="0 0 212 71" fill="none" xmlns="http://www.w3.org/2000/svg">
<path d="M111.95 67V56.92H113.273L116.927 64.501L120.56 56.92H121.897V66.993H120.511V60.098L117.256 67H116.591L113.329 60.098V67H111.95ZM125.993 67.21C125.433 67.21 124.964 67.1073 124.586 66.902C124.208 66.692 123.921 66.4167 123.725 66.076C123.534 65.7307 123.438 65.3527 123.438 64.942C123.438 64.5593 123.506 64.2233 123.641 63.934C123.776 63.6447 123.977 63.3997 124.243 63.199C124.509 62.9937 124.836 62.828 125.223 62.702C125.559 62.604 125.939 62.5177 126.364 62.443C126.789 62.3683 127.234 62.2983 127.701 62.233C128.172 62.1677 128.639 62.1023 129.101 62.037L128.569 62.331C128.578 61.7383 128.452 61.2997 128.191 61.015C127.934 60.7257 127.491 60.581 126.861 60.581C126.464 60.581 126.1 60.6743 125.769 60.861C125.438 61.043 125.207 61.3463 125.076 61.771L123.711 61.351C123.898 60.7023 124.252 60.1867 124.775 59.804C125.302 59.4213 126.002 59.23 126.875 59.23C127.552 59.23 128.14 59.3467 128.639 59.58C129.143 59.8087 129.512 60.1727 129.745 60.672C129.866 60.9193 129.941 61.1807 129.969 61.456C129.997 61.7313 130.011 62.0277 130.011 62.345V67H128.716V65.271L128.968 65.495C128.655 66.0737 128.256 66.5053 127.771 66.79C127.29 67.07 126.698 67.21 125.993 67.21ZM126.252 66.013C126.667 66.013 127.024 65.9407 127.323 65.796C127.622 65.6467 127.862 65.4577 128.044 65.229C128.226 65.0003 128.345 64.7623 128.401 64.515C128.48 64.291 128.525 64.039 128.534 63.759C128.548 63.479 128.555 63.255 128.555 63.087L129.031 63.262C128.569 63.332 128.149 63.395 127.771 63.451C127.393 63.507 127.05 63.563 126.742 63.619C126.439 63.6703 126.168 63.7333 125.93 63.808C125.729 63.878 125.55 63.962 125.391 64.06C125.237 64.158 125.113 64.277 125.02 64.417C124.931 64.557 124.887 64.7273 124.887 64.928C124.887 65.124 124.936 65.306 125.034 65.474C125.132 65.6373 125.281 65.768 125.482 65.866C125.683 65.964 125.939 66.013 126.252 66.013ZM137.135 67V63.283C137.135 62.989 137.109 62.688 137.058 62.38C137.011 62.0673 136.918 61.778 136.778 61.512C136.642 61.246 136.449 61.0313 136.197 60.868C135.949 60.7047 135.625 60.623 135.224 60.623C134.962 60.623 134.715 60.6673 134.482 60.756C134.248 60.84 134.043 60.9777 133.866 61.169C133.693 61.3603 133.555 61.6123 133.453 61.925C133.355 62.2377 133.306 62.618 133.306 63.066L132.396 62.723C132.396 62.037 132.524 61.4327 132.781 60.91C133.037 60.3827 133.406 59.972 133.887 59.678C134.367 59.384 134.948 59.237 135.63 59.237C136.152 59.237 136.591 59.321 136.946 59.489C137.3 59.657 137.587 59.8787 137.807 60.154C138.031 60.4247 138.201 60.721 138.318 61.043C138.434 61.365 138.514 61.68 138.556 61.988C138.598 62.296 138.619 62.5667 138.619 62.8V67H137.135ZM131.822 67V59.44H133.131V61.624H133.306V67H131.822ZM142.577 67.21C142.017 67.21 141.548 67.1073 141.17 66.902C140.792 66.692 140.505 66.4167 140.309 66.076C140.118 65.7307 140.022 65.3527 140.022 64.942C140.022 64.5593 140.09 64.2233 140.225 63.934C140.36 63.6447 140.561 63.3997 140.827 63.199C141.093 62.9937 141.42 62.828 141.807 62.702C142.143 62.604 142.523 62.5177 142.948 62.443C143.373 62.3683 143.818 62.2983 144.285 62.233C144.756 62.1677 145.223 62.1023 145.685 62.037L145.153 62.331C145.162 61.7383 145.036 61.2997 144.775 61.015C144.518 60.7257 144.075 60.581 143.445 60.581C143.048 60.581 142.684 60.6743 142.353 60.861C142.022 61.043 141.791 61.3463 141.66 61.771L140.295 61.351C140.482 60.7023 140.836 60.1867 141.359 59.804C141.886 59.4213 142.586 59.23 143.459 59.23C144.136 59.23 144.724 59.3467 145.223 59.58C145.727 59.8087 146.096 60.1727 146.329 60.672C146.45 60.9193 146.525 61.1807 146.553 61.456C146.581 61.7313 146.595 62.0277 146.595 62.345V67H145.3V65.271L145.552 65.495C145.239 66.0737 144.84 66.5053 144.355 66.79C143.874 67.07 143.282 67.21 142.577 67.21ZM142.836 66.013C143.251 66.013 143.608 65.9407 143.907 65.796C144.206 65.6467 144.446 65.4577 144.628 65.229C144.81 65.0003 144.929 64.7623 144.985 64.515C145.064 64.291 145.109 64.039 145.118 63.759C145.132 63.479 145.139 63.255 145.139 63.087L145.615 63.262C145.153 63.332 144.733 63.395 144.355 63.451C143.977 63.507 143.634 63.563 143.326 63.619C143.023 63.6703 142.752 63.7333 142.514 63.808C142.313 63.878 142.134 63.962 141.975 64.06C141.821 64.158 141.697 64.277 141.604 64.417C141.515 64.557 141.471 64.7273 141.471 64.928C141.471 65.124 141.52 65.306 141.618 65.474C141.716 65.6373 141.865 65.768 142.066 65.866C142.267 65.964 142.523 66.013 142.836 66.013ZM151.528 70.57C151.122 70.57 150.727 70.507 150.345 70.381C149.967 70.255 149.621 70.0683 149.309 69.821C148.996 69.5783 148.737 69.2773 148.532 68.918L149.883 68.232C150.046 68.554 150.279 68.7897 150.583 68.939C150.886 69.0883 151.206 69.163 151.542 69.163C151.957 69.163 152.312 69.0883 152.606 68.939C152.9 68.7943 153.121 68.575 153.271 68.281C153.425 67.987 153.499 67.623 153.495 67.189V65.075H153.67V59.44H154.965V67.203C154.965 67.4037 154.958 67.595 154.944 67.777C154.93 67.959 154.904 68.141 154.867 68.323C154.759 68.8317 154.554 69.2517 154.251 69.583C153.952 69.9143 153.569 70.1617 153.103 70.325C152.641 70.4883 152.116 70.57 151.528 70.57ZM151.416 67.21C150.711 67.21 150.102 67.035 149.589 66.685C149.08 66.335 148.686 65.859 148.406 65.257C148.13 64.6503 147.993 63.969 147.993 63.213C147.993 62.4523 148.133 61.7733 148.413 61.176C148.693 60.574 149.089 60.1003 149.603 59.755C150.121 59.405 150.734 59.23 151.444 59.23C152.158 59.23 152.757 59.405 153.243 59.755C153.733 60.1003 154.101 60.574 154.349 61.176C154.601 61.778 154.727 62.457 154.727 63.213C154.727 63.969 154.601 64.648 154.349 65.25C154.097 65.852 153.726 66.3303 153.236 66.685C152.746 67.035 152.139 67.21 151.416 67.21ZM151.619 65.887C152.099 65.887 152.491 65.7727 152.795 65.544C153.098 65.3153 153.32 65.0003 153.46 64.599C153.6 64.1977 153.67 63.7357 153.67 63.213C153.67 62.6903 153.597 62.2283 153.453 61.827C153.313 61.4257 153.093 61.113 152.795 60.889C152.501 60.665 152.125 60.553 151.668 60.553C151.182 60.553 150.783 60.672 150.471 60.91C150.158 61.148 149.925 61.4677 149.771 61.869C149.621 62.2703 149.547 62.7183 149.547 63.213C149.547 63.7123 149.621 64.165 149.771 64.571C149.925 64.9723 150.153 65.292 150.457 65.53C150.765 65.768 151.152 65.887 151.619 65.887ZM160.283 67.21C159.532 67.21 158.872 67.0467 158.302 66.72C157.738 66.3887 157.297 65.929 156.979 65.341C156.667 64.7483 156.51 64.0623 156.51 63.283C156.51 62.457 156.664 61.7407 156.972 61.134C157.285 60.5273 157.719 60.0583 158.274 59.727C158.83 59.3957 159.476 59.23 160.213 59.23C160.983 59.23 161.639 59.4097 162.18 59.769C162.722 60.1237 163.125 60.63 163.391 61.288C163.662 61.946 163.769 62.7277 163.713 63.633H162.25V63.101C162.241 62.2237 162.073 61.575 161.746 61.155C161.424 60.735 160.932 60.525 160.269 60.525C159.537 60.525 158.986 60.756 158.617 61.218C158.249 61.68 158.064 62.3473 158.064 63.22C158.064 64.0507 158.249 64.6947 158.617 65.152C158.986 65.6047 159.518 65.831 160.213 65.831C160.671 65.831 161.065 65.7283 161.396 65.523C161.732 65.313 161.994 65.0143 162.18 64.627L163.615 65.082C163.321 65.7587 162.876 66.2837 162.278 66.657C161.681 67.0257 161.016 67.21 160.283 67.21ZM157.588 63.633V62.492H162.985V63.633H157.588ZM174.137 67L174.144 62.289C174.144 61.743 174.004 61.3183 173.724 61.015C173.444 60.707 173.075 60.553 172.618 60.553C172.338 60.553 172.081 60.6183 171.848 60.749C171.619 60.875 171.432 61.0663 171.288 61.323C171.148 61.575 171.078 61.8923 171.078 62.275L170.371 61.918C170.361 61.386 170.473 60.9193 170.707 60.518C170.945 60.1167 171.267 59.8063 171.673 59.587C172.079 59.363 172.534 59.251 173.038 59.251C173.854 59.251 174.487 59.496 174.935 59.986C175.383 60.476 175.607 61.127 175.607 61.939L175.6 67H174.137ZM165.072 67V59.44H166.374V61.624H166.542V67H165.072ZM169.608 67L169.615 62.317C169.615 61.7663 169.475 61.3347 169.195 61.022C168.919 60.7093 168.548 60.553 168.082 60.553C167.62 60.553 167.246 60.7117 166.962 61.029C166.682 61.3463 166.542 61.7617 166.542 62.275L165.842 61.827C165.842 61.3323 165.961 60.8913 166.199 60.504C166.437 60.1167 166.759 59.811 167.165 59.587C167.571 59.363 168.03 59.251 168.544 59.251C169.08 59.251 169.538 59.3653 169.916 59.594C170.294 59.818 170.581 60.133 170.777 60.539C170.977 60.945 171.078 61.4163 171.078 61.953L171.071 67H169.608ZM180.682 67.21C179.93 67.21 179.27 67.0467 178.701 66.72C178.136 66.3887 177.695 65.929 177.378 65.341C177.065 64.7483 176.909 64.0623 176.909 63.283C176.909 62.457 177.063 61.7407 177.371 61.134C177.683 60.5273 178.117 60.0583 178.673 59.727C179.228 59.3957 179.874 59.23 180.612 59.23C181.382 59.23 182.037 59.4097 182.579 59.769C183.12 60.1237 183.524 60.63 183.79 61.288C184.06 61.946 184.168 62.7277 184.112 63.633H182.649V63.101C182.639 62.2237 182.471 61.575 182.145 61.155C181.823 60.735 181.33 60.525 180.668 60.525C179.935 60.525 179.384 60.756 179.016 61.218C178.647 61.68 178.463 62.3473 178.463 63.22C178.463 64.0507 178.647 64.6947 179.016 65.152C179.384 65.6047 179.916 65.831 180.612 65.831C181.069 65.831 181.463 65.7283 181.795 65.523C182.131 65.313 182.392 65.0143 182.579 64.627L184.014 65.082C183.72 65.7587 183.274 66.2837 182.677 66.657C182.079 67.0257 181.414 67.21 180.682 67.21ZM177.987 63.633V62.492H183.384V63.633H177.987ZM190.783 67V63.283C190.783 62.989 190.757 62.688 190.706 62.38C190.659 62.0673 190.566 61.778 190.426 61.512C190.291 61.246 190.097 61.0313 189.845 60.868C189.598 60.7047 189.273 60.623 188.872 60.623C188.611 60.623 188.363 60.6673 188.13 60.756C187.897 60.84 187.691 60.9777 187.514 61.169C187.341 61.3603 187.204 61.6123 187.101 61.925C187.003 62.2377 186.954 62.618 186.954 63.066L186.044 62.723C186.044 62.037 186.172 61.4327 186.429 60.91C186.686 60.3827 187.054 59.972 187.535 59.678C188.016 59.384 188.597 59.237 189.278 59.237C189.801 59.237 190.239 59.321 190.594 59.489C190.949 59.657 191.236 59.8787 191.455 60.154C191.679 60.4247 191.849 60.721 191.966 61.043C192.083 61.365 192.162 61.68 192.204 61.988C192.246 62.296 192.267 62.5667 192.267 62.8V67H190.783ZM185.47 67V59.44H186.779V61.624H186.954V67H185.47ZM198.416 67C197.94 67.0933 197.474 67.133 197.016 67.119C196.559 67.105 196.151 67.0163 195.791 66.853C195.432 66.6897 195.161 66.433 194.979 66.083C194.816 65.7703 194.727 65.453 194.713 65.131C194.704 64.8043 194.699 64.4357 194.699 64.025V57.34H196.169V63.955C196.169 64.2583 196.172 64.522 196.176 64.746C196.186 64.97 196.235 65.159 196.323 65.313C196.491 65.6023 196.757 65.768 197.121 65.81C197.49 65.8473 197.922 65.831 198.416 65.761V67ZM193.25 60.616V59.44H198.416V60.616H193.25Z" fill="#0369A1"/>
<path d="M49.088 38.54C47.072 38.54 45.344 38.09 43.904 37.19C42.464 36.29 41.36 35.066 40.592 33.518C39.824 31.97 39.44 30.224 39.44 28.28C39.44 26.312 39.836 24.554 40.628 23.006C41.432 21.458 42.56 20.24 44.012 19.352C45.464 18.464 47.18 18.02 49.16 18.02C51.452 18.02 53.372 18.602 54.92 19.766C56.48 20.918 57.476 22.496 57.908 24.5L53.012 25.796C52.724 24.788 52.22 24.002 51.5 23.438C50.792 22.874 49.988 22.592 49.088 22.592C48.056 22.592 47.21 22.844 46.55 23.348C45.89 23.84 45.404 24.518 45.092 25.382C44.78 26.234 44.624 27.2 44.624 28.28C44.624 29.972 44.996 31.346 45.74 32.402C46.496 33.446 47.612 33.968 49.088 33.968C50.192 33.968 51.032 33.716 51.608 33.212C52.184 32.708 52.616 31.988 52.904 31.052L57.908 32.096C57.356 34.16 56.312 35.75 54.776 36.866C53.24 37.982 51.344 38.54 49.088 38.54ZM61.3409 38V11.54H66.2369V38H61.3409ZM80.6693 38.54C78.6773 38.54 76.9193 38.114 75.3953 37.262C73.8833 36.398 72.6953 35.216 71.8313 33.716C70.9793 32.204 70.5533 30.476 70.5533 28.532C70.5533 26.408 70.9733 24.56 71.8133 22.988C72.6533 21.416 73.8113 20.198 75.2873 19.334C76.7633 18.458 78.4613 18.02 80.3813 18.02C82.4213 18.02 84.1553 18.5 85.5833 19.46C87.0113 20.42 88.0673 21.77 88.7513 23.51C89.4353 25.25 89.6753 27.296 89.4713 29.648H84.6293V27.848C84.6293 25.868 84.3113 24.446 83.6753 23.582C83.0513 22.706 82.0253 22.268 80.5973 22.268C78.9293 22.268 77.6993 22.778 76.9073 23.798C76.1273 24.806 75.7373 26.3 75.7373 28.28C75.7373 30.092 76.1273 31.496 76.9073 32.492C77.6993 33.476 78.8573 33.968 80.3813 33.968C81.3413 33.968 82.1633 33.758 82.8473 33.338C83.5313 32.918 84.0533 32.312 84.4133 31.52L89.3093 32.924C88.5773 34.7 87.4193 36.08 85.8353 37.064C84.2633 38.048 82.5413 38.54 80.6693 38.54ZM74.2253 29.648V26.012H87.1133V29.648H74.2253ZM98.5841 38.54C97.1921 38.54 96.0101 38.276 95.0381 37.748C94.0781 37.208 93.3461 36.494 92.8421 35.606C92.3501 34.706 92.1041 33.716 92.1041 32.636C92.1041 31.736 92.2421 30.914 92.5181 30.17C92.7941 29.426 93.2381 28.772 93.8501 28.208C94.4741 27.632 95.3081 27.152 96.3521 26.768C97.0721 26.504 97.9301 26.27 98.9261 26.066C99.9221 25.862 101.05 25.67 102.31 25.49C103.57 25.298 104.956 25.088 106.468 24.86L104.704 25.832C104.704 24.68 104.428 23.834 103.876 23.294C103.324 22.754 102.4 22.484 101.104 22.484C100.384 22.484 99.6341 22.658 98.8541 23.006C98.0741 23.354 97.5281 23.972 97.2161 24.86L92.7881 23.456C93.2801 21.848 94.2041 20.54 95.5601 19.532C96.9161 18.524 98.7641 18.02 101.104 18.02C102.82 18.02 104.344 18.284 105.676 18.812C107.008 19.34 108.016 20.252 108.7 21.548C109.084 22.268 109.312 22.988 109.384 23.708C109.456 24.428 109.492 25.232 109.492 26.12V38H105.208V34.004L105.82 34.832C104.872 36.14 103.846 37.088 102.742 37.676C101.65 38.252 100.264 38.54 98.5841 38.54ZM99.6281 34.688C100.528 34.688 101.284 34.532 101.896 34.22C102.52 33.896 103.012 33.53 103.372 33.122C103.744 32.714 103.996 32.372 104.128 32.096C104.38 31.568 104.524 30.956 104.56 30.26C104.608 29.552 104.632 28.964 104.632 28.496L106.072 28.856C104.62 29.096 103.444 29.3 102.544 29.468C101.644 29.624 100.918 29.768 100.366 29.9C99.8141 30.032 99.3281 30.176 98.9081 30.332C98.4281 30.524 98.0381 30.734 97.7381 30.962C97.4501 31.178 97.2341 31.418 97.0901 31.682C96.9581 31.946 96.8921 32.24 96.8921 32.564C96.8921 33.008 97.0001 33.392 97.2161 33.716C97.4441 34.028 97.7621 34.268 98.1701 34.436C98.5781 34.604 99.0641 34.688 99.6281 34.688ZM114.172 38V18.56H118.492V23.312L118.024 22.7C118.276 22.028 118.612 21.416 119.032 20.864C119.452 20.312 119.968 19.856 120.58 19.496C121.048 19.208 121.558 18.986 122.11 18.83C122.662 18.662 123.232 18.56 123.82 18.524C124.408 18.476 124.996 18.488 125.584 18.56V23.132C125.044 22.964 124.414 22.91 123.694 22.97C122.986 23.018 122.344 23.18 121.768 23.456C121.192 23.72 120.706 24.074 120.31 24.518C119.914 24.95 119.614 25.466 119.41 26.066C119.206 26.654 119.104 27.32 119.104 28.064V38H114.172ZM136.621 47.18C135.517 47.18 134.467 47 133.471 46.64C132.475 46.292 131.581 45.8 130.789 45.164C130.009 44.54 129.373 43.808 128.881 42.968L133.417 40.772C133.729 41.348 134.173 41.786 134.749 42.086C135.337 42.386 135.973 42.536 136.657 42.536C137.389 42.536 138.079 42.41 138.727 42.158C139.375 41.918 139.891 41.552 140.275 41.06C140.671 40.58 140.857 39.98 140.833 39.26V33.608H141.445V18.56H145.729V39.332C145.729 39.812 145.705 40.262 145.657 40.682C145.621 41.114 145.549 41.54 145.441 41.96C145.129 43.148 144.547 44.126 143.695 44.894C142.855 45.662 141.823 46.232 140.599 46.604C139.375 46.988 138.049 47.18 136.621 47.18ZM136.189 38.54C134.401 38.54 132.835 38.09 131.491 37.19C130.147 36.29 129.097 35.066 128.341 33.518C127.597 31.97 127.225 30.224 127.225 28.28C127.225 26.3 127.603 24.542 128.359 23.006C129.127 21.458 130.201 20.24 131.581 19.352C132.961 18.464 134.581 18.02 136.441 18.02C138.289 18.02 139.843 18.47 141.103 19.37C142.363 20.27 143.317 21.494 143.965 23.042C144.613 24.59 144.937 26.336 144.937 28.28C144.937 30.224 144.607 31.97 143.947 33.518C143.299 35.066 142.327 36.29 141.031 37.19C139.735 38.09 138.121 38.54 136.189 38.54ZM136.981 34.184C138.073 34.184 138.943 33.938 139.591 33.446C140.251 32.954 140.725 32.264 141.013 31.376C141.301 30.488 141.445 29.456 141.445 28.28C141.445 27.104 141.301 26.072 141.013 25.184C140.725 24.296 140.263 23.606 139.627 23.114C139.003 22.622 138.181 22.376 137.161 22.376C136.069 22.376 135.169 22.646 134.461 23.186C133.765 23.714 133.249 24.428 132.913 25.328C132.577 26.216 132.409 27.2 132.409 28.28C132.409 29.372 132.571 30.368 132.895 31.268C133.219 32.156 133.717 32.864 134.389 33.392C135.061 33.92 135.925 34.184 136.981 34.184ZM153.254 46.64L156.998 36.344L157.07 39.368L148.61 18.56H153.686L159.374 33.284H158.222L163.874 18.56H168.77L157.79 46.64H153.254ZM194.701 38V26.516C194.701 25.232 194.395 24.236 193.783 23.528C193.183 22.808 192.349 22.448 191.281 22.448C190.597 22.448 190.003 22.61 189.499 22.934C188.995 23.246 188.599 23.69 188.311 24.266C188.035 24.83 187.897 25.484 187.897 26.228L185.845 24.86C185.845 23.528 186.157 22.352 186.781 21.332C187.417 20.312 188.263 19.52 189.319 18.956C190.387 18.38 191.569 18.092 192.865 18.092C195.085 18.092 196.759 18.752 197.887 20.072C199.027 21.38 199.597 23.096 199.597 25.22V38H194.701ZM171.265 38V18.56H175.585V25.004H176.197V38H171.265ZM183.001 38V26.516C183.001 25.232 182.695 24.236 182.083 23.528C181.483 22.808 180.649 22.448 179.581 22.448C178.561 22.448 177.739 22.802 177.115 23.51C176.503 24.206 176.197 25.112 176.197 26.228L174.145 24.788C174.145 23.516 174.463 22.376 175.099 21.368C175.735 20.36 176.587 19.562 177.655 18.974C178.735 18.386 179.941 18.092 181.273 18.092C182.797 18.092 184.045 18.416 185.017 19.064C186.001 19.712 186.727 20.576 187.195 21.656C187.663 22.736 187.897 23.924 187.897 25.22V38H183.001Z" fill="#0369A1"/>
<path fill-rule="evenodd" clip-rule="evenodd" d="M168.392 19.3561H164C164 15.8457 166.622 13 169.856 13C173.09 13 175.712 15.8457 175.712 19.3561H171.32C171.32 18.4785 170.665 17.7671 169.856 17.7671C169.048 17.7671 168.392 18.4785 168.392 19.3561Z" fill="#0369A1"/>
<path d="M13.5025 28.5H19.4975M30.9375 31.9375V25.0625M2.0625 31.9375V25.0625M23.6225 36.75C26.9225 36.75 27.7475 34.8937 27.7475 32.625V24.375C27.7475 22.1063 26.9225 20.25 23.6225 20.25C20.3225 20.25 19.4975 22.1063 19.4975 24.375V32.625C19.4975 34.8937 20.3225 36.75 23.6225 36.75ZM9.3775 36.75C6.0775 36.75 5.2525 34.8937 5.2525 32.625V24.375C5.2525 22.1063 6.0775 20.25 9.3775 20.25C12.6775 20.25 13.5025 22.1063 13.5025 24.375V32.625C13.5025 34.8937 12.6775 36.75 9.3775 36.75Z" stroke="#0369A1" stroke-width="2.5" stroke-linecap="round" stroke-linejoin="round"/>
</svg>
